<svg width="128" height="128" viewBox="0 0 128 128" fill="none" xmlns="http://www.w3.org/2000/svg">
  <defs>
    <linearGradient id="g" x1="20" y1="20" x2="108" y2="108" gradientUnits="userSpaceOnUse">
      <stop stop-color="#0E7490"/>
      <stop offset="1" stop-color="#0F766E"/>
    </linearGradient>
  </defs>
  <rect x="12" y="12" width="104" height="104" rx="24" fill="url(#g)"/>
  <path d="M64 32C50.8 32 40 42.8 40 56C40 69.2 50.8 80 64 80C77.2 80 88 69.2 88 56C88 42.8 77.2 32 64 32Z" fill="white" fill-opacity="0.18"/>
  <path d="M64 40C55.2 40 48 47.2 48 56C48 64.8 55.2 72 64 72C72.8 72 80 64.8 80 56C80 47.2 72.8 40 64 40Z" fill="white" fill-opacity="0.22"/>
  <path d="M64 46C58.5 46 54 50.5 54 56C54 61.5 58.5 66 64 66C69.5 66 74 61.5 74 56C74 50.5 69.5 46 64 46Z" fill="white"/>
  <path d="M36 94C46.5 86.6 55.1 83 64 83C72.9 83 81.5 86.6 92 94" stroke="white" stroke-width="8" stroke-linecap="round" stroke-linejoin="round" opacity="0.9"/>
</svg>
